<mxfile host="app.diagrams.net" modified="2024-06-03T23:47:28.592Z" agent="Mozilla/5.0 (Windows NT 10.0; Win64; x64) AppleWebKit/537.36 (KHTML, like Gecko) Chrome/125.0.0.0 Safari/537.36" etag="g7Wel-tuhv4Me1srf1aV" version="24.4.4" type="device">
  <diagram name="Page-1" id="XOBVImuaWDU4zp4l633V">
    <mxGraphModel dx="1434" dy="778" grid="1" gridSize="10" guides="1" tooltips="1" connect="1" arrows="1" fold="1" page="1" pageScale="1" pageWidth="850" pageHeight="1100" math="0" shadow="0">
      <root>
        <mxCell id="0" />
        <mxCell id="1" parent="0" />
        <mxCell id="VIqwSLlXx-D6UN_931Ra-8" style="edgeStyle=orthogonalEdgeStyle;rounded=0;orthogonalLoop=1;jettySize=auto;html=1;entryX=0;entryY=0.5;entryDx=0;entryDy=0;" edge="1" parent="1" source="VIqwSLlXx-D6UN_931Ra-1" target="VIqwSLlXx-D6UN_931Ra-5">
          <mxGeometry relative="1" as="geometry" />
        </mxCell>
        <mxCell id="VIqwSLlXx-D6UN_931Ra-1" value="1000" style="ellipse;whiteSpace=wrap;html=1;aspect=fixed;" vertex="1" parent="1">
          <mxGeometry x="180" y="230" width="80" height="80" as="geometry" />
        </mxCell>
        <mxCell id="VIqwSLlXx-D6UN_931Ra-9" style="edgeStyle=orthogonalEdgeStyle;rounded=0;orthogonalLoop=1;jettySize=auto;html=1;entryX=0;entryY=0.5;entryDx=0;entryDy=0;" edge="1" parent="1" source="VIqwSLlXx-D6UN_931Ra-5" target="VIqwSLlXx-D6UN_931Ra-6">
          <mxGeometry relative="1" as="geometry" />
        </mxCell>
        <mxCell id="VIqwSLlXx-D6UN_931Ra-5" value="0100" style="ellipse;whiteSpace=wrap;html=1;aspect=fixed;" vertex="1" parent="1">
          <mxGeometry x="290" y="230" width="80" height="80" as="geometry" />
        </mxCell>
        <mxCell id="VIqwSLlXx-D6UN_931Ra-10" style="edgeStyle=orthogonalEdgeStyle;rounded=0;orthogonalLoop=1;jettySize=auto;html=1;entryX=0;entryY=0.5;entryDx=0;entryDy=0;" edge="1" parent="1" source="VIqwSLlXx-D6UN_931Ra-6" target="VIqwSLlXx-D6UN_931Ra-7">
          <mxGeometry relative="1" as="geometry" />
        </mxCell>
        <mxCell id="VIqwSLlXx-D6UN_931Ra-6" value="0010" style="ellipse;whiteSpace=wrap;html=1;aspect=fixed;" vertex="1" parent="1">
          <mxGeometry x="410" y="230" width="80" height="80" as="geometry" />
        </mxCell>
        <mxCell id="VIqwSLlXx-D6UN_931Ra-13" style="edgeStyle=orthogonalEdgeStyle;rounded=0;orthogonalLoop=1;jettySize=auto;html=1;entryX=0.5;entryY=1;entryDx=0;entryDy=0;" edge="1" parent="1" source="VIqwSLlXx-D6UN_931Ra-7" target="VIqwSLlXx-D6UN_931Ra-1">
          <mxGeometry relative="1" as="geometry">
            <mxPoint x="220" y="360" as="targetPoint" />
            <Array as="points">
              <mxPoint x="560" y="360" />
              <mxPoint x="220" y="360" />
            </Array>
          </mxGeometry>
        </mxCell>
        <mxCell id="VIqwSLlXx-D6UN_931Ra-7" value="0001" style="ellipse;whiteSpace=wrap;html=1;aspect=fixed;" vertex="1" parent="1">
          <mxGeometry x="520" y="230" width="80" height="80" as="geometry" />
        </mxCell>
        <mxCell id="VIqwSLlXx-D6UN_931Ra-12" style="edgeStyle=orthogonalEdgeStyle;rounded=0;orthogonalLoop=1;jettySize=auto;html=1;" edge="1" parent="1" source="VIqwSLlXx-D6UN_931Ra-11" target="VIqwSLlXx-D6UN_931Ra-1">
          <mxGeometry relative="1" as="geometry" />
        </mxCell>
        <mxCell id="VIqwSLlXx-D6UN_931Ra-11" value="&lt;b&gt;INÍCIO&lt;/b&gt;" style="text;html=1;align=center;verticalAlign=middle;whiteSpace=wrap;rounded=0;" vertex="1" parent="1">
          <mxGeometry x="190" y="170" width="60" height="30" as="geometry" />
        </mxCell>
        <mxCell id="VIqwSLlXx-D6UN_931Ra-14" value="&lt;font style=&quot;font-size: 8px;&quot;&gt;Q0 Q1 Q2 Q3&lt;/font&gt;" style="text;html=1;align=center;verticalAlign=middle;whiteSpace=wrap;rounded=0;" vertex="1" parent="1">
          <mxGeometry x="170" y="240" width="100" height="30" as="geometry" />
        </mxCell>
      </root>
    </mxGraphModel>
  </diagram>
</mxfile>
